<?xml version="1.0" encoding="utf-8"?>
<!-- Generator: Adobe Illustrator 24.0.2, SVG Export Plug-In . SVG Version: 6.00 Build 0)  -->
<svg version="1.1" id="Слой_1" xmlns="http://www.w3.org/2000/svg" xmlns:xlink="http://www.w3.org/1999/xlink" x="0px" y="0px"
	 viewBox="0 0 12 12" style="enable-background:new 0 0 12 12;" xml:space="preserve">
<style type="text/css">
	.st0{fill:none;}
	.st1{fill-rule:evenodd;clip-rule:evenodd;fill:#1D1D1D;}
</style>
<title>skip_next</title>
<desc>Created with Sketch.</desc>
<g id="Icons">
	<g id="Rounded" transform="translate(-548.000000, -1000.000000)">
		<g id="AV" transform="translate(100.000000, 852.000000)">
			<g id="_x2D_Round-_x2F_-AV-_x2F_-skip_x5F_next" transform="translate(442.000000, 142.000000)">
				<g>
					<rect id="Rectangle-Copy-52" x="0" y="0" class="st0" width="24" height="24"/>
					<path id="_xD83D__xDD39_Icon-Color" class="st1" d="M18,16.1V7.9c0-0.8-0.9-1.3-1.6-0.8l-5.8,4.1c-0.6,0.4-0.6,1.2,0,1.6
						l5.8,4.1C17.1,17.4,18,16.9,18,16.1z M7,6C6.5,6,6,6.4,6,7v10c0,0.5,0.5,1,1,1s1-0.5,1-1V7C8,6.4,7.5,6,7,6z"/>
				</g>
			</g>
		</g>
	</g>
</g>
</svg>
